<svg xmlns="http://www.w3.org/2000/svg" width="177" height="48" viewBox="0 0 177 48" fill="none"><path d="M13.5809 3.67464C16.2501 2.56911 19.111 2 22 2V13C20.5554 13 19.125 13.2845 17.7905 13.8374C16.4559 14.3901 15.2432 15.2004 14.2218 16.2218C13.2004 17.2432 12.3901 18.4559 11.8374 19.7905C11.2845 21.125 11 22.5554 11 24H0C0 21.111 0.569108 18.2501 1.67464 15.5809C2.7803 12.9117 4.40075 10.4866 6.44361 8.44361C8.4866 6.40075 10.9117 4.7803 13.5809 3.67464Z" fill="white"></path><path opacity="0.8" d="M0 24C0 26.889 0.569108 29.7499 1.67464 32.4191C2.7803 35.0883 4.40075 37.5134 6.44361 39.5564C8.48659 41.5992 10.9117 43.2197 13.5809 44.3254C16.2501 45.4309 19.111 46 22 46C24.889 46 27.7499 45.4309 30.4191 44.3254C33.0883 43.2197 35.5134 41.5992 37.5564 39.5564C39.5992 37.5134 41.2197 35.0883 42.3254 32.4191C43.4309 29.7499 44 26.889 44 24H33C33 25.4446 32.7155 26.875 32.1626 28.2095C31.6099 29.5441 30.7996 30.7568 29.7782 31.7782C28.7568 32.7996 27.5441 33.6099 26.2095 34.1626C24.875 34.7155 23.4446 35 22 35C20.5554 35 19.125 34.7155 17.7905 34.1626C16.4559 33.6099 15.2432 32.7996 14.2218 31.7782C13.2004 30.7568 12.3901 29.5441 11.8374 28.2095C11.2845 26.875 11 25.4446 11 24H0Z" fill="white"></path><path opacity="0.8" d="M22 17C18.134 17 15 20.134 15 24H29C29 20.134 25.866 17 22 17Z" fill="white"></path><path d="M22 31C18.134 31 15 27.866 15 24H29C29 27.866 25.866 31 22 31Z" fill="white"></path><path d="M66.8164 19.4025C66.7369 18.6004 66.3955 17.9773 65.7923 17.5332C65.189 17.0891 64.3704 16.867 63.3363 16.867C62.6336 16.867 62.0404 16.9664 61.5565 17.1653C61.0726 17.3575 60.7013 17.626 60.4428 17.9707C60.1909 18.3154 60.065 18.7065 60.065 19.144C60.0517 19.5086 60.128 19.8268 60.2937 20.0985C60.466 20.3703 60.7013 20.6056 60.9996 20.8045C61.2979 20.9967 61.6426 21.1658 62.0337 21.3116C62.4248 21.4508 62.8424 21.5701 63.2866 21.6696L65.1161 22.1071C66.0044 22.3059 66.8197 22.5711 67.5621 22.9025C68.3046 23.234 68.9476 23.6416 69.4911 24.1255C70.0347 24.6094 70.4556 25.1795 70.7539 25.8358C71.0588 26.492 71.2146 27.2444 71.2212 28.0929C71.2146 29.3391 70.8964 30.4196 70.2667 31.3343C69.6436 32.2425 68.7421 32.9485 67.5621 33.4522C66.3889 33.9494 64.9736 34.198 63.3164 34.198C61.6725 34.198 60.2406 33.9461 59.021 33.4423C57.8079 32.9385 56.86 32.1928 56.1772 31.2051C55.5011 30.2108 55.1464 28.9811 55.1133 27.5162H59.2795C59.3259 28.1989 59.5214 28.769 59.8661 29.2264C60.2174 29.6771 60.6848 30.0185 61.2681 30.2505C61.8581 30.4759 62.5243 30.5886 63.2667 30.5886C63.9959 30.5886 64.6289 30.4825 65.1658 30.2704C65.7094 30.0583 66.1303 29.7633 66.4286 29.3855C66.7269 29.0076 66.8761 28.5735 66.8761 28.0829C66.8761 27.6255 66.7402 27.2411 66.4684 26.9295C66.2032 26.618 65.8121 26.3528 65.2951 26.1341C64.7847 25.9153 64.1583 25.7164 63.4158 25.5375L61.1985 24.9806C59.4817 24.563 58.1261 23.9101 57.1317 23.0218C56.1374 22.1336 55.6436 20.9371 55.6502 19.4324C55.6436 18.1994 55.9717 17.1222 56.6346 16.2008C57.3041 15.2794 58.2222 14.5602 59.3888 14.0431C60.5555 13.5261 61.8813 13.2676 63.3661 13.2676C64.8775 13.2676 66.1966 13.5261 67.3235 14.0431C68.457 14.5602 69.3387 15.2794 69.9684 16.2008C70.5981 17.1222 70.9229 18.1895 70.9428 19.4025H66.8164Z" fill="white"></path><path d="M80.9979 34.2079C79.4268 34.2079 78.0746 33.8897 76.9411 33.2534C75.8142 32.6104 74.9458 31.7022 74.3359 30.5289C73.7261 29.349 73.4212 27.9537 73.4212 26.3429C73.4212 24.7718 73.7261 23.3931 74.3359 22.2065C74.9458 21.0199 75.8042 20.0952 76.9112 19.4324C78.0249 18.7695 79.3307 18.438 80.8288 18.438C81.8364 18.438 82.7744 18.6004 83.6428 18.9252C84.5178 19.2434 85.2801 19.724 85.9297 20.367C86.5859 21.01 87.0964 21.8187 87.4609 22.7931C87.8255 23.7609 88.0078 24.8945 88.0078 26.1937V27.3571H75.1115V24.7321H84.0206C84.0206 24.1222 83.888 23.582 83.6229 23.1113C83.3577 22.6407 82.9898 22.2728 82.5192 22.0076C82.0552 21.7359 81.5149 21.6 80.8984 21.6C80.2554 21.6 79.6854 21.7491 79.1882 22.0474C78.6977 22.3391 78.3132 22.7335 78.0348 23.2306C77.7564 23.7212 77.6139 24.2681 77.6072 24.8713V27.367C77.6072 28.1227 77.7465 28.7756 78.0249 29.3258C78.3099 29.876 78.7109 30.3002 79.228 30.5985C79.745 30.8968 80.3582 31.046 81.0675 31.046C81.5381 31.046 81.969 30.9797 82.3601 30.8471C82.7512 30.7145 83.0859 30.5157 83.3643 30.2505C83.6428 29.9854 83.8549 29.6606 84.0007 29.2761L87.9183 29.5346C87.7195 30.4759 87.3118 31.2979 86.6953 32.0005C86.0855 32.6966 85.2966 33.2401 84.3288 33.6312C83.3677 34.0157 82.2573 34.2079 80.9979 34.2079Z" fill="white"></path><path d="M97.6527 39.9551C96.2805 39.9551 95.1039 39.7662 94.1229 39.3883C93.1484 39.0171 92.3729 38.51 91.7962 37.867C91.2195 37.224 90.8449 36.5015 90.6726 35.6994L94.5902 35.1724C94.7095 35.4773 94.8984 35.7624 95.157 36.0275C95.4155 36.2927 95.7569 36.5048 96.1811 36.6639C96.612 36.8296 97.1357 36.9125 97.7521 36.9125C98.6735 36.9125 99.4325 36.6871 100.029 36.2363C100.632 35.7922 100.934 35.0465 100.934 33.9991V31.2051H100.755C100.569 31.6293 100.291 32.0304 99.9197 32.4082C99.5485 32.786 99.0713 33.0943 98.4879 33.3329C97.9046 33.5716 97.2086 33.6909 96.3999 33.6909C95.2531 33.6909 94.209 33.4257 93.2678 32.8954C92.3331 32.3585 91.5874 31.5398 91.0305 30.4395C90.4804 29.3324 90.2053 27.9338 90.2053 26.2434C90.2053 24.5133 90.487 23.0682 91.0504 21.9082C91.6139 20.7482 92.3629 19.8798 93.2976 19.3031C94.2389 18.7264 95.2696 18.438 96.3899 18.438C97.245 18.438 97.9609 18.5839 98.5376 18.8755C99.1143 19.1606 99.5784 19.5185 99.9297 19.9494C100.288 20.3736 100.563 20.7913 100.755 21.2022H100.914V18.6369H105.12V34.0588C105.12 35.358 104.802 36.4451 104.165 37.3201C103.529 38.1951 102.647 38.8514 101.521 39.2889C100.4 39.733 99.111 39.9551 97.6527 39.9551ZM97.7422 30.5091C98.425 30.5091 99.0017 30.34 99.4723 30.002C99.9496 29.6573 100.314 29.1667 100.566 28.5304C100.825 27.8874 100.954 27.1184 100.954 26.2235C100.954 25.3287 100.828 24.5531 100.576 23.8968C100.324 23.234 99.9595 22.7202 99.4822 22.3556C99.005 21.9911 98.425 21.8088 97.7422 21.8088C97.0462 21.8088 96.4595 21.9977 95.9822 22.3755C95.505 22.7467 95.1437 23.2638 94.8984 23.9267C94.6532 24.5895 94.5305 25.3552 94.5305 26.2235C94.5305 27.1052 94.6532 27.8675 94.8984 28.5105C95.1503 29.1468 95.5116 29.6407 95.9822 29.992C96.4595 30.3367 97.0462 30.5091 97.7422 30.5091Z" fill="white"></path><path d="M108.491 33.9096V18.6369H112.528V21.3315H112.707C113.025 20.4366 113.555 19.7306 114.298 19.2136C115.04 18.6966 115.928 18.438 116.962 18.438C118.01 18.438 118.901 18.6999 119.637 19.2235C120.373 19.7406 120.863 20.4432 121.109 21.3315H121.268C121.579 20.4565 122.143 19.7572 122.958 19.2335C123.78 18.7032 124.751 18.438 125.871 18.438C127.297 18.438 128.453 18.8921 129.342 19.8002C130.237 20.7018 130.684 21.9811 130.684 23.6383V33.9096H126.458V24.4735C126.458 23.6251 126.233 22.9887 125.782 22.5645C125.331 22.1402 124.768 21.9281 124.092 21.9281C123.323 21.9281 122.723 22.1734 122.292 22.6639C121.861 23.1478 121.646 23.7875 121.646 24.5829V33.9096H117.539V24.3841C117.539 23.635 117.324 23.0384 116.893 22.5943C116.469 22.1502 115.908 21.9281 115.212 21.9281C114.742 21.9281 114.317 22.0474 113.94 22.286C113.568 22.5181 113.273 22.8462 113.055 23.2704C112.836 23.688 112.727 24.1786 112.727 24.742V33.9096H108.491Z" fill="white"></path><path d="M140.99 34.2079C139.419 34.2079 138.067 33.8897 136.933 33.2534C135.806 32.6104 134.938 31.7022 134.328 30.5289C133.718 29.349 133.413 27.9537 133.413 26.3429C133.413 24.7718 133.718 23.3931 134.328 22.2065C134.938 21.0199 135.796 20.0952 136.903 19.4324C138.017 18.7695 139.323 18.438 140.821 18.438C141.829 18.438 142.767 18.6004 143.635 18.9252C144.51 19.2434 145.272 19.724 145.922 20.367C146.578 21.01 147.089 21.8187 147.453 22.7931C147.818 23.7609 148 24.8945 148 26.1937V27.3571H135.104V24.7321H144.013C144.013 24.1222 143.88 23.582 143.615 23.1113C143.35 22.6407 142.982 22.2728 142.511 22.0076C142.047 21.7359 141.507 21.6 140.891 21.6C140.248 21.6 139.678 21.7491 139.18 22.0474C138.69 22.3391 138.305 22.7335 138.027 23.2306C137.749 23.7212 137.606 24.2681 137.599 24.8713V27.367C137.599 28.1227 137.739 28.7756 138.017 29.3258C138.302 29.876 138.703 30.3002 139.22 30.5985C139.737 30.8968 140.35 31.046 141.06 31.046C141.53 31.046 141.961 30.9797 142.352 30.8471C142.743 30.7145 143.078 30.5157 143.357 30.2505C143.635 29.9854 143.847 29.6606 143.993 29.2761L147.911 29.5346C147.712 30.4759 147.304 31.2979 146.688 32.0005C146.078 32.6966 145.289 33.2401 144.321 33.6312C143.36 34.0157 142.25 34.2079 140.99 34.2079Z" fill="white"></path><path d="M155 25.0801V33.9096H150.764V18.6369H154.801V21.3315H154.98C155.318 20.4432 155.885 19.7406 156.68 19.2235C157.476 18.6999 158.44 18.438 159.574 18.438C160.634 18.438 161.559 18.67 162.348 19.1341C163.137 19.5981 163.75 20.2609 164.188 21.1227C164.625 21.9778 164.844 22.9986 164.844 24.1852V33.9096H160.608V24.9409C160.615 24.0062 160.376 23.277 159.892 22.7534C159.408 22.2231 158.742 21.9579 157.893 21.9579C157.323 21.9579 156.82 22.0806 156.382 22.3258C155.951 22.5711 155.613 22.929 155.368 23.3997C155.129 23.8637 155.007 24.4238 155 25.0801Z" fill="white"></path><path d="M176.306 18.6369V21.8187H167.108V18.6369H176.306ZM169.196 14.9778H173.432V29.2164C173.432 29.6075 173.492 29.9125 173.611 30.1312C173.73 30.3433 173.896 30.4925 174.108 30.5787C174.327 30.6648 174.579 30.7079 174.864 30.7079C175.063 30.7079 175.262 30.6913 175.461 30.6582C175.659 30.6184 175.812 30.5886 175.918 30.5687L176.584 33.7207C176.372 33.787 176.074 33.8632 175.689 33.9494C175.305 34.0422 174.837 34.0985 174.287 34.1184C173.266 34.1582 172.372 34.0223 171.603 33.7108C170.84 33.3992 170.247 32.9153 169.823 32.2591C169.399 31.6028 169.19 30.7742 169.196 29.7733V14.9778Z" fill="white"></path></svg>