<svg xmlns="http://www.w3.org/2000/svg" width="179" height="48" viewBox="0 0 179 48" fill="none"><path d="M25.7996 35.7883C22.2996 34.4883 18.6996 34.2883 15.3996 35.1883C13.0996 35.7883 10.8996 36.9883 8.89963 38.4883L7.4996 39.6883L7.09961 40.0883L7.9996 40.8883C8.0996 40.8883 8.09962 40.9883 8.19962 41.0883C8.39962 41.2883 8.59963 41.3883 8.89963 41.5883L9.4996 41.9883L10.0996 41.4883C10.1996 41.3883 10.3996 41.1883 10.5996 41.0883C12.3996 39.5883 14.3996 38.5883 16.4996 38.0883C19.1996 37.3883 22.0996 37.4883 24.9996 38.5883C27.3996 39.4883 32.2996 40.5883 38.1996 38.0883L38.3996 37.9883L38.6996 37.6883C38.6996 37.5883 38.7996 37.5883 38.8996 37.4883C39.3996 36.8883 39.8996 36.2883 40.2996 35.5883L42.2996 32.4883L39.0996 34.2883C34.3996 36.8883 30.0996 37.3883 25.7996 35.7883Z" fill="white"></path><path d="M12.1 24.9871C14.8 24.2871 17.7 24.3871 20.6 25.4871C23.8 26.6871 32 28.3871 41.2 20.0871L42.7 18.5871L42.8 18.4871L43.2 18.0871L43 17.5871C42.9 17.1871 42.7 16.6871 42.5 16.1871L42 14.7871L41 15.7871C40.9 15.9871 40.7 16.0871 40.5 16.2871C36.1 20.7871 29.3 25.3871 21.5 22.5871C18 21.2871 14.4 21.0871 11.1 21.9871C7.90001 22.8871 5.1 24.5871 2.5 26.9871V26.8871L1 28.4871C1 28.5871 0.900018 28.5871 0.800018 28.6871L0.5 28.9871L0.600006 29.3871C0.700006 29.8871 0.9 30.3871 1 30.8871L1.60001 32.4871L2.60001 31.1871C2.70001 30.9871 2.9 30.8871 3 30.6871C5.1 28.7871 8.00001 26.0871 12.1 24.9871Z" fill="white"></path><path d="M2.40002 23.1871C4.70002 20.7871 7.30001 19.2871 10.1 18.4871C12.8 17.7871 15.7 17.8871 18.6 18.9871C27.6 22.2871 35.4 16.8871 38.8 13.9871L40.1 12.6871L40.6 12.2871L40.2 11.6871C39.9 11.3871 39.7 10.9871 39.4 10.5871L38.8 9.78711L38.1 10.4871C38 10.5871 37.8 10.7871 37.7 10.8871C33.5 14.8871 27 18.9871 19.6 16.1871C16.1 14.8871 12.5 14.6871 9.20001 15.5871C7.10001 16.1871 5.10001 17.1871 3.10001 18.4871L1 20.1871C0.8 20.3871 0.7 20.4871 0.5 20.6871L0.300018 20.8871V21.1871C0.200018 21.8871 0.200006 22.5871 0.100006 23.1871L0 25.6871L1.70001 23.8871C1.90001 23.6871 2.10002 23.3871 2.40002 23.1871Z" fill="white"></path><path d="M28.7004 42.587L28.5004 43.187L28.7004 42.587C28.4004 42.487 28.2004 42.387 27.9004 42.287C24.4004 40.987 20.8004 40.787 17.5004 41.687C16.8004 41.887 16.1004 42.087 15.4004 42.387L13.0004 43.487L12.4004 43.787L14.4004 44.487C15.0004 44.687 15.6004 44.887 16.2004 45.087L16.5004 45.187L16.8004 45.087C17.1004 44.987 17.4004 44.787 17.7004 44.787C17.9004 44.787 18.1004 44.687 18.3004 44.587C20.7004 43.987 23.3004 43.987 26.1004 44.887C26.4004 44.987 26.6004 45.087 26.9004 45.187L27.4004 45.387L27.7004 45.287C28.4004 45.087 29.2004 44.887 29.8004 44.587L32.6004 43.587L29.7004 42.887C29.4004 42.787 29.0004 42.687 28.7004 42.587Z" fill="white"></path><path d="M43.9998 21.8867L42.4998 23.3867C42.2998 23.5867 42.0998 23.7867 41.8998 23.9867C37.7998 27.8867 31.1998 32.0867 23.7998 29.2867C20.2998 27.9867 16.6998 27.7867 13.3998 28.6867C10.2998 29.5867 7.49979 31.1867 4.99979 33.5867L3.6998 34.9867L3.2998 35.4867L3.6998 36.0867C3.9998 36.4867 4.19981 36.7867 4.39981 37.1867L4.99979 38.0867L5.6998 37.1867C5.7998 37.0867 5.99979 36.8867 6.09979 36.7867C8.49979 34.1867 11.0998 32.5867 14.0998 31.7867C16.7998 31.0867 19.6998 31.1867 22.5998 32.2867C25.0998 33.1867 27.6998 33.4867 30.2998 33.1867C34.8998 32.6867 39.4998 30.0867 42.8998 27.1867C43.0998 26.9867 43.2998 26.8867 43.4998 26.6867L43.7998 26.3867V26.0867C43.7998 25.4867 43.8998 24.7867 43.8998 24.1867L43.9998 21.8867Z" fill="white"></path><path d="M6.00018 12.6879L5.7002 12.0879L6.00018 12.6879C6.60018 12.3879 7.30021 12.1879 7.90021 11.9879C10.6002 11.2879 13.5002 11.3879 16.4002 12.4879C18.3002 13.1879 20.2002 13.4879 22.3002 13.4879C26.5002 13.4879 30.7002 11.9879 34.6002 9.08789L36.1002 7.88788L36.6002 7.48788L35.7002 6.78787C35.4002 6.48787 35.0002 6.18788 34.6002 5.98788L34.0002 5.58789L33.5002 5.98788C33.3002 6.08788 33.2002 6.28788 33.0002 6.38788C27.7002 10.3879 22.4002 11.4879 17.4002 9.58789C13.8002 8.28789 10.2002 7.98789 6.60019 9.08789C6.30019 9.18789 6.00019 9.28788 5.60019 9.38788L5.40021 9.48788L5.10019 9.78787C5.10019 9.88787 5.00021 9.88788 4.90021 9.98788C4.50021 10.5879 4.00019 11.0879 3.60019 11.6879L1.7002 14.5879L4.8002 12.9879C5.3002 12.9879 5.70018 12.7879 6.00018 12.6879Z" fill="white"></path><path d="M14.2 5.88748L14.5 5.98749C15.8 6.48749 17.8 6.98749 20.3 6.98749C22.9 6.98749 25.4 6.38748 27.9 5.38748L31 3.88748L28.9 3.1875C28.3 2.9875 27.7 2.7875 27 2.6875H26.7L26.4 2.78748C26.1 2.88748 25.8 3.0875 25.5 3.1875C22.5 4.2875 19.5 4.4875 16.6 3.6875C16.3 3.5875 16 3.48748 15.7 3.38748L15.4 3.28748L15.1 3.38748C14.5 3.58748 13.9 3.78749 13.3 4.08749L11 5.08749L13.4 5.78748C13.6 5.68748 13.9 5.78748 14.2 5.88748Z" fill="white"></path><path d="M61.2797 33.9098H56.666L63.6958 13.5462H69.2441L76.264 33.9098H71.6504L66.5495 18.1996H66.3904L61.2797 33.9098ZM60.9913 25.9055H71.889V29.2663H60.9913V25.9055Z" fill="white"></path><path d="M82.8713 13.5462V33.9098H78.6355V13.5462H82.8713Z" fill="white"></path><path d="M94.388 18.6371V21.8189H85.1905V18.6371H94.388ZM87.2786 14.978H91.5144V29.2166C91.5144 29.6077 91.574 29.9126 91.6934 30.1314C91.8127 30.3435 91.9784 30.4927 92.1905 30.5788C92.4093 30.665 92.6612 30.7081 92.9462 30.7081C93.1451 30.7081 93.3439 30.6915 93.5428 30.6584C93.7417 30.6186 93.8941 30.5888 94.0002 30.5689L94.6664 33.7209C94.4543 33.7872 94.156 33.8634 93.7715 33.9496C93.387 34.0424 92.9197 34.0987 92.3695 34.1186C91.3487 34.1584 90.4538 34.0225 89.6848 33.7109C88.9225 33.3994 88.3292 32.9155 87.905 32.2592C87.4808 31.603 87.272 30.7744 87.2786 29.7734V14.978Z" fill="white"></path><path d="M102.728 32.8061V18.7266H106.287V32.8061H102.728ZM97.4679 27.5462V23.9865H111.547V27.5462H97.4679Z" fill="white"></path><path d="M126.84 19.4027C126.76 18.6006 126.419 17.9775 125.816 17.5334C125.213 17.0893 124.394 16.8672 123.36 16.8672C122.657 16.8672 122.064 16.9666 121.58 17.1655C121.096 17.3577 120.725 17.6262 120.466 17.9709C120.215 18.3156 120.089 18.7067 120.089 19.1442C120.075 19.5088 120.152 19.8269 120.317 20.0987C120.49 20.3705 120.725 20.6058 121.023 20.8047C121.322 20.9969 121.666 21.166 122.057 21.3118C122.448 21.451 122.866 21.5703 123.31 21.6697L125.14 22.1072C126.028 22.3061 126.843 22.5713 127.586 22.9027C128.328 23.2341 128.971 23.6418 129.515 24.1257C130.058 24.6096 130.479 25.1797 130.778 25.8359C131.082 26.4922 131.238 27.2446 131.245 28.093C131.238 29.3393 130.92 30.4197 130.29 31.3345C129.667 32.2427 128.766 32.9486 127.586 33.4524C126.412 33.9496 124.997 34.1982 123.34 34.1982C121.696 34.1982 120.264 33.9463 119.045 33.4425C117.831 32.9387 116.884 32.1929 116.201 31.2053C115.525 30.2109 115.17 28.9813 115.137 27.5163H119.303C119.349 28.1991 119.545 28.7692 119.89 29.2266C120.241 29.6773 120.708 30.0187 121.292 30.2507C121.882 30.4761 122.548 30.5888 123.29 30.5888C124.019 30.5888 124.653 30.4827 125.189 30.2706C125.733 30.0585 126.154 29.7635 126.452 29.3857C126.751 29.0078 126.9 28.5736 126.9 28.0831C126.9 27.6257 126.764 27.2412 126.492 26.9297C126.227 26.6181 125.836 26.353 125.319 26.1342C124.808 25.9155 124.182 25.7166 123.439 25.5376L121.222 24.9808C119.505 24.5632 118.15 23.9103 117.155 23.022C116.161 22.1338 115.667 20.9373 115.674 19.4325C115.667 18.1996 115.995 17.1224 116.658 16.201C117.328 15.2796 118.246 14.5604 119.412 14.0433C120.579 13.5263 121.905 13.2678 123.39 13.2678C124.901 13.2678 126.22 13.5263 127.347 14.0433C128.481 14.5604 129.362 15.2796 129.992 16.201C130.622 17.1224 130.947 18.1896 130.966 19.4027H126.84Z" fill="white"></path><path d="M138.297 25.0803V33.9098H134.061V13.5462H138.178V21.3317H138.357C138.701 20.4302 139.258 19.7242 140.027 19.2138C140.796 18.6967 141.761 18.4382 142.921 18.4382C143.981 18.4382 144.906 18.6702 145.695 19.1342C146.49 19.5916 147.107 20.2512 147.544 21.1129C147.988 21.968 148.207 22.9922 148.2 24.1854V33.9098H143.965V24.9411C143.971 23.9998 143.733 23.2673 143.249 22.7436C142.771 22.2199 142.102 21.9581 141.24 21.9581C140.664 21.9581 140.153 22.0807 139.709 22.326C139.271 22.5713 138.927 22.9292 138.675 23.3999C138.43 23.8639 138.304 24.424 138.297 25.0803Z" fill="white"></path><path d="M151.534 33.9098V18.6371H155.77V33.9098H151.534ZM153.662 16.6683C153.032 16.6683 152.492 16.4595 152.041 16.0419C151.597 15.6177 151.375 15.1106 151.375 14.5206C151.375 13.9373 151.597 13.4368 152.041 13.0192C152.492 12.5949 153.032 12.3828 153.662 12.3828C154.291 12.3828 154.828 12.5949 155.273 13.0192C155.723 13.4368 155.949 13.9373 155.949 14.5206C155.949 15.1106 155.723 15.6177 155.273 16.0419C154.828 16.4595 154.291 16.6683 153.662 16.6683Z" fill="white"></path><path d="M168.89 18.6371V21.8189H157.95V18.6371H168.89ZM160.107 33.9098V17.5334C160.107 16.4264 160.323 15.5083 160.754 14.7791C161.191 14.05 161.788 13.5031 162.544 13.1385C163.299 12.7739 164.158 12.5916 165.119 12.5916C165.768 12.5916 166.362 12.6413 166.899 12.7408C167.442 12.8402 167.847 12.9297 168.112 13.0092L167.356 16.1911C167.19 16.138 166.985 16.0883 166.74 16.0419C166.501 15.9955 166.256 15.9723 166.004 15.9723C165.381 15.9723 164.946 16.1181 164.701 16.4098C164.456 16.6948 164.333 17.0959 164.333 17.6129V33.9098H160.107Z" fill="white"></path><path d="M178.087 18.6371V21.8189H168.89V18.6371H178.087ZM170.978 14.978H175.214V29.2166C175.214 29.6077 175.273 29.9126 175.393 30.1314C175.512 30.3435 175.678 30.4927 175.89 30.5788C176.108 30.665 176.36 30.7081 176.645 30.7081C176.844 30.7081 177.043 30.6915 177.242 30.6584C177.441 30.6186 177.593 30.5888 177.699 30.5689L178.366 33.7209C178.153 33.7872 177.855 33.8634 177.471 33.9496C177.086 34.0424 176.619 34.0987 176.069 34.1186C175.048 34.1584 174.153 34.0225 173.384 33.7109C172.622 33.3994 172.028 32.9155 171.604 32.2592C171.18 31.603 170.971 30.7744 170.978 29.7734V14.978Z" fill="white"></path></svg>